<svg width="175" height="41" viewBox="0 0 175 41" fill="none" xmlns="http://www.w3.org/2000/svg">
<g clip-path="url(#clip0)">
<path d="M0 13.5359H8.16467V20.1744C9.75694 19.5858 11.4457 19.2893 13.147 19.2994C19.5596 19.2994 24.2083 23.9114 24.2083 30.2321C24.2083 35.003 20.8821 40.6489 13.3068 40.6489H0V13.5359ZM8.16467 33.6847C9.18357 33.8635 10.2161 33.9567 11.2511 33.9633C14.1778 33.9633 16.1016 32.4135 16.1016 29.9869C16.1016 27.6034 14.2178 25.9732 11.4909 25.9732C10.3638 25.9636 9.24194 26.1244 8.16467 26.4499V33.6847ZM37.9307 19.2935C46.9483 19.2935 50.3944 25.059 50.3944 30.1477C50.3944 35.7132 46.4269 41 38.0086 41C28.9909 41 25.4629 35.2757 25.4629 30.1477C25.4709 24.7393 29.1986 19.2935 37.9366 19.2935H37.9307ZM37.9307 34.2026C40.4797 34.2026 42.2337 32.5312 42.2337 30.1477C42.2337 27.7643 40.4857 26.0909 37.9366 26.0909C35.3876 26.0909 33.6336 27.7623 33.6336 30.1477C33.6336 32.5332 35.3876 34.2026 37.9366 34.2026H37.9307ZM52.0565 13.5359H60.2092V40.643H52.0565V13.5359ZM70.887 36.1153C70.887 38.8186 68.7554 41.0059 66.0725 41.0059C63.3896 41.0059 61.216 38.8186 61.216 36.1153C61.2084 35.4832 61.3282 34.8558 61.5685 34.2693C61.8089 33.6828 62.165 33.1488 62.6164 32.698C63.0678 32.2473 63.6056 31.8887 64.1987 31.6429C64.7919 31.3971 65.4287 31.269 66.0725 31.2659C68.7554 31.26 70.887 33.4062 70.887 36.1094V36.1153ZM89.3299 39.6935C86.619 40.6881 84.9709 41.0059 82.7374 41.0059C75.7874 41.0059 70.9509 36.594 70.9509 30.2713C70.9509 25.0237 74.4449 19.2994 82.4957 19.2994C84.7656 19.3 87.0204 19.6624 89.1721 20.3725V27.3307C87.3741 26.495 85.716 26.0968 83.988 26.0968C81.0833 26.0968 79.1196 27.7682 79.1196 30.1929C79.1196 32.5783 81.2012 34.2085 84.2237 34.2085C85.756 34.2085 87.0905 33.8495 89.3299 32.8961V39.6935ZM102.882 19.2935C111.9 19.2935 115.346 25.059 115.346 30.1477C115.346 35.7132 111.379 41 102.96 41C93.9426 41 90.4147 35.2757 90.4147 30.1477C90.4127 24.7393 94.1404 19.2935 102.882 19.2935ZM102.882 34.2026C105.43 34.2026 107.185 32.5312 107.185 30.1477C107.185 27.7643 105.426 26.0909 102.882 26.0909C100.339 26.0909 98.5773 27.7623 98.5773 30.1477C98.5773 32.5332 100.329 34.2026 102.882 34.2026ZM117.116 19.6506H125.257V22.4343C127.231 20.2881 129.554 19.2955 132.133 19.2955C135.074 19.2955 136.965 20.4078 138.538 23.0326C140.671 20.6079 143.29 19.2955 146.109 19.2955C150.904 19.2955 152.981 23.0326 152.981 27.2071V40.6449H144.834V28.596C144.834 27.0855 143.932 26.0909 142.561 26.0909C141.362 26.0909 139.996 26.8462 139.149 28.239V40.643H130.944V28.7549C130.944 27.2052 130.001 26.0909 128.547 26.0909C127.5 26.0909 126.15 26.8462 125.257 28.239V40.643H117.112L117.116 19.6506ZM162.634 0.784689C169.017 0.784689 174.201 5.93813 174.201 12.2823C174.201 18.6266 169.007 23.782 162.626 23.782C156.245 23.782 151.039 18.6226 151.039 12.2823C151.039 5.94206 156.251 0.784689 162.634 0.784689ZM162.634 0C155.822 0 150.266 5.51048 150.266 12.2823C150.266 19.0542 155.822 24.5608 162.634 24.5608C169.446 24.5608 175 19.0522 175 12.2823C175 5.51244 169.452 0 162.634 0ZM156.901 13.3927C155.303 13.3927 153.57 12.3078 153.57 10.556C153.57 7.2211 157.88 4.16278 159.364 3.49383C159.596 3.38593 159.963 3.81947 160.099 4.08234C160.211 4.30598 160.167 4.38837 160.109 4.41976C157.404 5.84005 154.495 8.50799 154.495 11.0072C154.495 12.0901 155.075 12.5119 156.563 12.5119C158.311 12.5119 162.285 10.146 162.285 8.43933C162.285 7.80177 161.801 7.47809 160.85 7.47809C158.495 7.47809 157.224 8.98665 156.855 10.2775C156.827 10.3756 156.719 10.4167 156.573 10.3873C156.385 10.35 156.195 10.2068 156.217 10.0421C156.369 8.89641 157.616 6.38345 160.301 6.38345C161.509 6.38345 162.986 7.44866 162.986 8.69043C162.984 11.1132 159.556 13.3927 156.901 13.3927ZM160.766 21.4652C159.436 21.4652 157.182 20.8767 157.182 18.6599C157.182 16.9512 158.641 14.9444 161.4 12.8552L161.467 12.8022C161.651 12.661 162.111 12.9454 162.318 13.1945C162.526 13.4437 162.42 13.5359 162.374 13.5732C161.062 14.6521 157.979 17.1788 157.979 19.2288C157.979 20.0135 158.627 20.5157 159.668 20.5157C161.036 20.5157 162.738 20.1233 164.462 19.425C164.682 19.3347 164.941 19.6211 165.061 19.8585C165.181 20.0959 165.157 20.2371 165.039 20.2999C163.513 21.1356 162.273 21.473 160.766 21.473V21.4652ZM166.582 13.5045C163.673 13.5045 163.639 11.3976 163.639 11.3093C163.646 11.1239 163.69 10.9417 163.769 10.7732C163.848 10.6048 163.961 10.4536 164.1 10.3285C164.224 10.2127 164.476 10.2735 164.578 10.3069C164.778 10.3677 164.999 10.4933 165.027 10.6325C165.033 10.6616 165.03 10.6916 165.02 10.7193C165.009 10.747 164.991 10.7713 164.967 10.7895C164.568 11.1308 164.368 11.378 164.368 11.8527C164.368 12.2608 164.802 12.6963 165.605 12.6963C168.769 12.6963 170.787 10.0244 170.787 8.62962C170.787 7.35646 169.834 7.0877 169.035 7.0877C166.26 7.0877 164.224 9.69287 164.14 9.80469C164.121 9.83122 164.094 9.85174 164.063 9.86389C164.031 9.87603 163.998 9.87931 163.965 9.87335C163.747 9.84785 163.447 9.51828 163.333 9.25345C163.304 9.20202 163.288 9.14389 163.288 9.08474C163.288 9.02559 163.304 8.96745 163.333 8.91603C163.842 8.30253 164.427 7.75477 165.075 7.28584C166.202 6.46976 167.295 6.05388 168.324 6.05388C170.535 6.05388 171.542 7.64091 171.542 9.11416C171.53 11.4623 169.219 13.5123 166.582 13.5123V13.5045Z" fill="#222222"/>
</g>
<defs>
<clipPath id="clip0">
<rect width="175" height="41" fill="white"/>
</clipPath>
</defs>
</svg>
