<svg width="120" height="43" viewBox="0 0 120 43" fill="none" xmlns="http://www.w3.org/2000/svg">
<path d="M120 42.9571L112.661 16.538C109.669 6.11672 99.8711 0 90.8242 0H0L7.23749 26.4648V26.5049C10.2437 37.0176 20.0499 42.9 28.5886 43L120 42.9571ZM13.4983 24.6898C13.4785 24.6327 10.063 12.0848 8.5557 6.58262H90.8101C96.9326 6.58262 104.21 10.7557 106.4 18.3473C106.423 18.4302 110.778 34.3537 111.345 36.4145H28.8173C22.579 36.4145 15.6154 32.0328 13.4955 24.6956L13.4983 24.6898Z" fill="#222222"/>
<path d="M13.4955 24.6899C13.4757 24.6327 10.0602 12.0848 8.55289 6.58264H90.8073C96.9298 6.58264 104.207 10.7557 106.397 18.3473C106.42 18.4302 110.775 34.3537 111.343 36.4145H28.8173C22.5819 36.4145 15.6154 32.0328 13.4955 24.6899Z" fill="white"/>
<path fill-rule="evenodd" clip-rule="evenodd" d="M26.6918 30.618H29.571V18.3531H32.9244V16.1207H29.571V14.2028C29.571 13.3139 29.8843 12.9995 30.8158 12.9995H32.9244V10.2498H30.5871C28.3544 10.2498 26.6889 11.4818 26.6889 14.2V16.1179H23.3864L24.0158 18.3502H26.6918V30.618ZM36.5713 25.7532C36.5713 29.0459 39.1118 30.7895 41.37 30.7895C42.0762 30.813 42.7782 30.6703 43.4208 30.3728C44.0634 30.0752 44.629 29.6308 45.0734 29.0745H45.1299V30.6208H48.0119V16.1065H45.127V24.7499C45.127 26.725 43.9076 27.8711 42.3043 27.8711C40.701 27.8711 39.4505 26.7278 39.4505 24.7499V16.1065H36.5713V25.7532ZM53.1097 30.618H55.9945V21.9745C55.9945 19.9994 57.2083 18.8533 58.8512 18.8533C60.494 18.8533 61.6739 19.9966 61.6739 21.9745V30.618H64.5559V20.9713C64.5559 17.6785 62.0154 15.9321 59.7798 15.9321C59.0692 15.9059 58.3622 16.0472 57.7146 16.3448C57.0671 16.6424 56.4966 17.0882 56.0482 17.6471H55.9917V16.1007H53.1097V30.618ZM77.3429 30.618H80.2277V10.2384H77.3429V17.6528C76.2702 16.6209 75.1129 15.9378 73.6423 15.9378C72.8993 15.9211 72.1631 16.0837 71.4946 16.4122C70.8261 16.7408 70.2444 17.2258 69.7977 17.8271C69.0073 18.8561 68.7815 19.8022 68.7815 23.3522C68.7815 26.9022 69.0102 27.874 69.7977 28.9058C70.2444 29.507 70.8261 29.9918 71.4947 30.3198C72.1633 30.6479 72.8995 30.8099 73.6423 30.7923C74.341 30.7855 75.0307 30.6318 75.6677 30.341C76.3047 30.0502 76.8751 29.6287 77.3429 29.1031V30.618ZM74.5201 18.8647C77.2074 18.8647 77.3429 21.2685 77.3429 23.3608C77.3429 25.453 77.2017 27.8826 74.5201 27.8826C71.8385 27.8826 71.6692 25.6217 71.6692 23.3608C71.6692 21.0999 71.8047 18.8647 74.5201 18.8647ZM92.786 30.618H95.668V20.714C95.668 17.1354 93.2405 15.9321 89.7064 15.9321C87.5583 15.9321 85.972 16.5038 84.8711 18.0501L87.1293 19.7965C87.6402 18.9676 88.3487 18.6818 89.8447 18.6818C91.9082 18.6818 92.7832 19.1677 92.7832 20.5425V22.0688H88.7919C85.7151 22.0688 84.1287 24.0439 84.1287 26.3563C84.1287 28.8744 85.9917 30.7923 89.187 30.7923C91.1376 30.7923 92.1283 30.335 92.7211 29.3346H92.7776L92.786 30.618ZM92.786 25.5216C92.786 27.7825 91.9674 28.0398 89.5625 28.0398C87.612 28.0398 86.847 27.1823 86.847 26.2076C86.847 25.1501 87.6402 24.4612 89.3367 24.4612H92.786V25.5216Z" fill="#222222"/>
</svg>
