<svg width="219" height="23" viewBox="0 0 219 23" fill="none" xmlns="http://www.w3.org/2000/svg">
<g clip-path="url(#clip0)">
<path d="M4.73065 15.1543C4.73065 15.9983 4.90443 16.7081 5.27129 17.3028C5.61885 17.8974 6.12088 18.377 6.75807 18.7606C7.39526 19.1443 8.10968 19.4128 8.93996 19.5855C9.77024 19.7581 10.6584 19.854 11.6239 19.854C12.6666 19.854 13.5548 19.7581 14.2885 19.5663C15.0222 19.3745 15.6208 19.1251 16.0649 18.8182C16.5283 18.5113 16.8566 18.1468 17.0496 17.7631C17.2427 17.3603 17.3586 16.9575 17.3586 16.5546C17.3586 15.7106 17.1269 15.0967 16.6635 14.6939C16.2001 14.2911 15.6787 14.0225 15.1188 13.8499C14.1533 13.5621 13.0334 13.2936 11.759 13.0442C10.4847 12.7948 8.90134 12.4495 7.02839 12.0467C5.86986 11.7973 4.90443 11.4712 4.13208 11.0876C3.35973 10.6847 2.74184 10.2435 2.29774 9.74479C1.83433 9.24604 1.52539 8.72811 1.3323 8.17181C1.13922 7.61551 1.04267 7.05922 1.04267 6.48374C1.04267 5.37114 1.3323 4.41201 1.89226 3.60634C2.45221 2.80067 3.20526 2.12927 4.15138 1.59216C5.0589 1.03586 6.12088 0.65221 7.29871 0.383653C8.49586 0.134279 9.693 0 10.9095 0C12.3383 0 13.6706 0.15346 14.9257 0.460382C16.1807 0.767305 17.2813 1.20851 18.2275 1.80317C19.1736 2.39783 19.9266 3.12677 20.4866 4.00917C21.0466 4.87239 21.3169 5.88907 21.3169 7.04003H16.5669C16.4318 5.62052 15.8525 4.62302 14.7905 4.04754C13.7285 3.47206 12.3769 3.16514 10.7357 3.16514C10.1757 3.16514 9.61576 3.2035 9.0365 3.29942C8.45724 3.39533 7.91659 3.54879 7.43387 3.7598C6.95116 3.97081 6.54567 4.25855 6.23673 4.6422C5.90848 4.98749 5.75401 5.44787 5.75401 6.00417C5.75401 6.79066 6.04364 7.38532 6.64222 7.82652C7.24079 8.26772 8.01314 8.59383 8.97858 8.82402C9.07512 8.8432 9.4806 8.93911 10.1757 9.09258C10.8708 9.24604 11.6432 9.41868 12.5121 9.59133C13.381 9.78315 14.2113 9.9558 15.0415 10.1284C15.8718 10.3011 16.4511 10.4354 16.7986 10.5121C17.6868 10.7423 18.4592 11.0492 19.1157 11.4329C19.7722 11.8165 20.3321 12.2769 20.7762 12.7756C21.2203 13.2744 21.5486 13.8115 21.761 14.387C21.9734 14.9625 22.0892 15.5379 22.0892 16.1134C22.0892 17.3411 21.7803 18.3962 21.1624 19.2594C20.5445 20.1226 19.7336 20.8324 18.7102 21.3887C17.7061 21.945 16.5476 22.3478 15.2539 22.5972C13.9602 22.8465 12.6472 22.9808 11.3149 22.9808C9.77023 22.9808 8.32208 22.8274 6.95116 22.5204C5.58023 22.2135 4.4024 21.7339 3.37903 21.1009C2.37498 20.4679 1.56401 19.643 0.94613 18.6647C0.347558 17.6672 0.0193088 16.4971 0 15.1543H4.73065V15.1543ZM85.4606 15.1543C85.4606 15.9983 85.6344 16.7081 86.0012 17.3028C86.3488 17.8974 86.8508 18.377 87.488 18.7606C88.1252 19.1443 88.8396 19.4128 89.6699 19.5855C90.5002 19.7581 91.3884 19.854 92.3538 19.854C93.3965 19.854 94.2847 19.7581 95.0184 19.5663C95.7522 19.3745 96.3507 19.1251 96.7948 18.8182C97.2582 18.5113 97.5865 18.1468 97.7796 17.7631C97.9727 17.3603 98.0885 16.9575 98.0885 16.5546C98.0885 15.7106 97.8568 15.0967 97.3934 14.6939C96.93 14.2911 96.4087 14.0225 95.8487 13.8499C94.8833 13.5621 93.7634 13.2936 92.489 13.0442C91.2146 12.7948 89.6313 12.4495 87.7583 12.0467C86.5998 11.7973 85.6344 11.4712 84.862 11.0876C84.0897 10.6847 83.4718 10.2435 83.0277 9.74479C82.5643 9.24604 82.2553 8.72811 82.0623 8.17181C81.8692 7.61551 81.7726 7.05922 81.7726 6.48374C81.7726 5.37114 82.0623 4.41201 82.6222 3.60634C83.1822 2.80067 83.9352 2.12927 84.8813 1.59216C85.8081 1.05505 86.8701 0.671394 88.0673 0.402837C89.2644 0.153462 90.4616 0.0191824 91.678 0.0191824C93.0876 0.0191824 94.4392 0.172643 95.6749 0.460382C96.93 0.767305 98.0306 1.20851 98.9767 1.80317C99.9229 2.39783 100.676 3.12677 101.236 4.00917C101.796 4.87239 102.066 5.88907 102.066 7.04003H97.3162C97.181 5.62052 96.6018 4.62302 95.5398 4.04754C94.4778 3.47206 93.1262 3.16514 91.4849 3.16514C90.925 3.16514 90.365 3.2035 89.7858 3.29942C89.2065 3.39533 88.6658 3.54879 88.1831 3.7598C87.7004 3.97081 87.2949 4.25855 86.986 4.6422C86.677 5.00667 86.5033 5.46705 86.5033 6.02335C86.5033 6.80984 86.7929 7.4045 87.3915 7.8457C87.99 8.2869 88.7624 8.61301 89.7278 8.8432C89.8244 8.86239 90.2299 8.9583 90.925 9.11176C91.6201 9.26522 92.3924 9.43787 93.2613 9.61051C94.1302 9.80234 94.9605 9.97498 95.7908 10.1476C96.6211 10.3203 97.2003 10.4545 97.5479 10.5313C98.4361 10.7615 99.2084 11.0684 99.8649 11.452C100.521 11.8357 101.081 12.2961 101.525 12.7948C101.97 13.2936 102.298 13.8307 102.51 14.4062C102.723 14.9817 102.838 15.5571 102.838 16.1326C102.838 17.3603 102.53 18.4153 101.912 19.2786C101.294 20.1418 100.483 20.8515 99.4594 21.4078C98.4554 21.9641 97.2969 22.367 96.0032 22.6163C94.7095 22.8657 93.3965 23 92.0642 23C90.5195 23 89.0713 22.8465 87.7004 22.5396C86.3295 22.2327 85.1517 21.7531 84.1283 21.1201C83.1242 20.4871 82.3133 19.6622 81.6954 18.6839C81.0968 17.6864 80.7686 16.5163 80.7493 15.1735H85.4606V15.1543V15.1543ZM25.0435 0.537115H29.5617V13.3128C29.5617 14.0417 29.6003 14.7898 29.6969 15.5571C29.7741 16.3053 30.0251 16.9958 30.4113 17.5905C30.8168 18.2043 31.4154 18.6839 32.2263 19.0867C33.0373 19.4704 34.1765 19.6622 35.644 19.6622C37.1114 19.6622 38.2507 19.4704 39.0616 19.0867C39.8726 18.7031 40.4712 18.2043 40.8767 17.5905C41.2821 16.9958 41.5138 16.3053 41.5911 15.5571C41.6683 14.809 41.7262 14.0609 41.7262 13.3128V0.537115H46.2445V14.5788C46.2445 15.9983 45.9935 17.226 45.4915 18.2619C44.9894 19.2977 44.275 20.1801 43.3482 20.8899C42.4214 21.5997 41.3014 22.1176 40.0078 22.4629C38.7141 22.8082 37.2659 22.9808 35.6826 22.9808C34.0993 22.9808 32.6511 22.8082 31.3574 22.4629C30.0637 22.1176 28.9438 21.5805 28.017 20.8899C27.0902 20.1801 26.3758 19.3169 25.8737 18.2619C25.3717 17.226 25.1207 15.9791 25.1207 14.5788V0.537115H25.0435V0.537115ZM51.3999 0.537115H55.9182V22.4629H51.3999V0.537115ZM58.9883 0.537115H79.861V3.85571H71.6548V22.4629H67.1559V3.85571H58.9883V0.537115ZM106.874 0.537115H111.373V13.3128C111.373 14.0417 111.412 14.7898 111.508 15.5571C111.585 16.3053 111.836 16.9958 112.223 17.5905C112.628 18.2043 113.227 18.6839 114.038 19.0867C114.849 19.4704 115.988 19.6622 117.455 19.6622C118.923 19.6622 120.062 19.4704 120.873 19.0867C121.684 18.7031 122.282 18.2043 122.688 17.5905C123.093 16.9958 123.325 16.3053 123.402 15.5571C123.48 14.809 123.537 14.0609 123.537 13.3128V0.537115H128.056V14.5788C128.056 15.9983 127.805 17.226 127.303 18.2619C126.801 19.2977 126.086 20.1801 125.159 20.8899C124.233 21.5997 123.113 22.1176 121.819 22.4629C120.525 22.8082 119.077 22.9808 117.494 22.9808C115.911 22.9808 114.462 22.8082 113.169 22.4629C111.875 22.1176 110.755 21.5805 109.828 20.8899C108.901 20.1801 108.187 19.3169 107.685 18.2619C107.183 17.226 106.932 15.9791 106.932 14.5788V0.537115H106.874V0.537115ZM134.138 0.537115H145.511C147.345 0.537115 148.832 0.767307 149.99 1.20851C151.149 1.64971 152.037 2.22519 152.655 2.89658C153.273 3.56797 153.717 4.3161 153.929 5.10259C154.161 5.90826 154.277 6.6372 154.277 7.30859C154.277 7.97998 154.161 8.70892 153.929 9.49541C153.698 10.2819 153.273 11.0108 152.655 11.7014C152.037 12.3728 151.13 12.9291 149.99 13.3703C148.832 13.8115 147.345 14.0225 145.511 14.0225H138.656V22.4437H134.138V0.537115ZM138.637 10.9149H145.241C145.743 10.9149 146.264 10.8574 146.785 10.7231C147.307 10.608 147.809 10.397 148.253 10.1284C148.697 9.85988 149.064 9.47623 149.334 9.01585C149.604 8.55546 149.759 7.97998 149.759 7.28941C149.759 6.57965 149.643 5.98499 149.392 5.50542C149.16 5.02585 148.832 4.66138 148.407 4.39283C148.002 4.12427 147.519 3.93244 146.998 3.81735C146.476 3.72143 145.897 3.66389 145.298 3.66389H138.618L138.637 10.9149V10.9149ZM158.216 0.537115H169.589C171.423 0.537115 172.91 0.767307 174.069 1.20851C175.227 1.64971 176.115 2.22519 176.733 2.89658C177.351 3.56797 177.795 4.3161 178.007 5.10259C178.239 5.90826 178.355 6.6372 178.355 7.30859C178.355 7.97998 178.239 8.70892 178.007 9.49541C177.776 10.2819 177.351 11.0108 176.733 11.7014C176.115 12.3728 175.208 12.9291 174.069 13.3703C172.91 13.8115 171.423 14.0225 169.589 14.0225H162.734V22.4437H158.216V0.537115ZM162.734 10.9149H169.338C169.84 10.9149 170.361 10.8574 170.883 10.7231C171.404 10.608 171.906 10.397 172.35 10.1284C172.794 9.85988 173.161 9.47623 173.431 9.01585C173.702 8.55546 173.856 7.97998 173.856 7.28941C173.856 6.57965 173.74 5.98499 173.489 5.50542C173.258 5.02585 172.929 4.66138 172.524 4.39283C172.118 4.12427 171.636 3.93244 171.114 3.81735C170.593 3.72143 170.014 3.66389 169.415 3.66389H162.734V10.9149V10.9149ZM182.313 0.537115H186.832V19.1443H199.942V22.4629H182.313V0.537115V0.537115ZM204.847 13.8691L195.173 0.537115H200.406L207.222 10.3586L213.941 0.537115H219L209.365 13.8691V22.4629H204.847V13.8691V13.8691Z" fill="#222222"/>
</g>
<defs>
<clipPath id="clip0">
<rect width="219" height="23" fill="white"/>
</clipPath>
</defs>
</svg>
